<?xml version="1.0" encoding="utf-8"?>
<!-- Generator: Adobe Illustrator 26.0.1, SVG Export Plug-In . SVG Version: 6.00 Build 0)  -->
<svg version="1.1" id="Layer_1" xmlns="http://www.w3.org/2000/svg" xmlns:xlink="http://www.w3.org/1999/xlink" x="0px" y="0px"
	 viewBox="0 0 60 88" style="enable-background:new 0 0 60 88;" xml:space="preserve">
<path d="M3.7,12.9c-0.4,6.6,4.5,12.2,11.1,12.7c0.3,0,0.5,0,0.8,0l10,18.9l-10,22.2c-1,2.3-1.5,7.3-1.4,9.9c0.2,2.6,1.5,9.5,2.5,7.3
	l13.7-30.3L46.1,83c1.2,2.2,2-4.8,2-7.4c0-2.6-0.8-7.6-2-9.8L34.7,44.1l8.2-18.1c1.5,0.3,3,0.3,4.5-0.1c6.4-1.3,10.6-7.6,9.3-14.1
	c-1.3-6.4-7.6-10.6-14.1-9.3C36.2,4,32,10.3,33.4,16.7c0.4,1.9,1.2,3.6,2.4,5.1l-5.9,13.1l-6.5-12.3c2.3-2,3.9-4.9,4.1-8.2
	c0.4-6.6-4.5-12.2-11.1-12.7C9.8,1.4,4.1,6.3,3.7,12.9z M46.5,21.3c-3.9,0.8-7.7-1.7-8.4-5.6c-0.8-3.9,1.7-7.7,5.6-8.4
	c3.9-0.8,7.7,1.7,8.4,5.6C52.8,16.8,50.3,20.6,46.5,21.3z M30.4,40.7c1.1,0.1,2,1.1,1.9,2.2c-0.1,1.1-1.1,2-2.2,1.9
	c-1.1-0.1-2-1.1-1.9-2.2C28.3,41.5,29.3,40.6,30.4,40.7z M16.1,6.5c3.9,0.3,6.9,3.7,6.7,7.6c-0.3,3.9-3.7,6.9-7.6,6.7
	c-3.9-0.3-6.9-3.7-6.7-7.6C8.7,9.3,12.1,6.3,16.1,6.5z"/>
</svg>
